<svg width="169" height="34" viewBox="0 0 169 34" fill="none" xmlns="http://www.w3.org/2000/svg">
<g clip-path="url(#clip0_44_27943)">
<path d="M27.5098 12.0046L27.5927 12.0032C33.7154 11.9114 40.199 12.0234 46.3399 12.0354C48.9984 12.5641 48.0907 16.0644 48.2251 17.9574C48.458 21.2347 45.6848 20.8504 43.437 20.8359C42.7383 20.8314 42.0623 20.835 41.3908 20.8339L31.6492 20.8283L31.6452 23.452L28.0053 23.4528C28.0344 21.5604 28.0106 19.604 28.0124 17.7064L44.608 17.6938L44.612 15.1629C42.9621 15.1076 41.0013 15.1553 39.3188 15.1546L28.9374 15.1506C28.4699 14.0981 27.994 13.0494 27.5098 12.0046Z" fill="white"/>
<path d="M96.9041 12.0034L100.562 11.9965C100.559 12.924 100.463 19.8349 100.676 20.1445C100.958 20.1403 101.023 20.1161 101.262 19.9501C104.972 17.3669 108.744 14.6451 112.396 11.9998L117.175 11.9986C117.147 15.8098 117.216 19.6401 117.16 23.4509C115.939 23.4563 114.718 23.4548 113.497 23.4464V15.2988C109.889 17.7562 105.733 20.8155 102.253 23.4585C96.5894 23.383 96.8649 24.6239 96.8901 18.5268L96.9041 12.0034Z" fill="white"/>
<path d="M120.447 12.0028L124.119 11.9948L124.111 16.2003L131.803 16.19C132.882 15.1906 135.144 12.7697 136.135 12.0012L140.802 11.9974L134.919 17.7132C135.754 18.6105 137.01 19.7786 137.908 20.661C138.868 21.5757 139.815 22.5046 140.748 23.4472C139.169 23.4792 137.503 23.4591 135.923 23.442C134.637 22.0757 133.14 20.6393 131.803 19.3037L124.113 19.3079L124.109 23.4513C122.9 23.4674 121.66 23.4535 120.449 23.4543L120.447 12.0028Z" fill="white"/>
<path d="M51.5913 12.0031L55.2524 11.997L55.2505 16.1948L62.916 16.1819C64.1274 15.1602 66.0425 13.1639 67.2348 11.9975L71.9224 12.0046C69.9728 13.9173 68.0121 15.8185 66.0401 17.7081L68.9534 20.5765C69.9252 21.4884 70.9374 22.5105 71.8957 23.4471C70.2892 23.4572 68.6826 23.4584 67.0761 23.4507C65.8273 22.1192 64.2461 20.5806 62.9204 19.3137C60.3836 19.2834 57.7988 19.3095 55.2583 19.3101L55.2482 23.4533C54.0282 23.4664 52.808 23.4669 51.5879 23.455L51.5913 12.0031Z" fill="white"/>
<path d="M9.95253 11.9166C10.7319 11.8562 16.3406 11.8579 16.8675 11.9823L16.9214 11.9955C17.4678 12.1239 19.6957 15.3998 20.1962 16.0836L25.5615 23.4386C24.1989 23.481 22.7074 23.4531 21.3353 23.4547C19.8101 21.1926 17.4503 18.2132 15.7718 15.9715L15.1155 15.0946L11.7712 15.0924C9.66837 17.869 7.58137 20.6577 5.51033 23.4581C4.09055 23.4633 2.67067 23.4593 1.25098 23.446L6.67332 16.0749C7.16059 15.4133 9.37795 12.2151 9.95253 11.9166Z" fill="white"/>
<path d="M151.309 11.9059C153.38 11.855 155.863 11.8544 157.946 11.9412C158.202 11.9518 158.453 12.0708 158.62 12.2696C159.536 13.3589 160.434 14.661 161.279 15.8138L166.848 23.4465C165.459 23.4823 163.98 23.4571 162.586 23.4573C161.31 21.4431 158.648 18.11 157.153 16.1113L156.37 15.0914L153.061 15.0967C151.131 17.836 148.835 20.7035 146.82 23.454C145.412 23.4633 144.003 23.4587 142.595 23.4401C144.293 21.0752 146.084 18.7059 147.805 16.3564C148.393 15.5534 150.669 12.2194 151.309 11.9059Z" fill="white"/>
<path d="M73.9189 12.0039L93.9345 11.9981L93.9252 15.1547L88.9096 15.1534C88.1766 15.1526 86.7441 15.1141 86.0633 15.2023L85.9485 15.354L85.9531 23.4502L82.2468 23.4603L82.2449 15.1614L75.3178 15.1553C74.8664 14.0982 74.4002 13.0476 73.9189 12.0039Z" fill="white"/>
</g>
<defs>
<clipPath id="clip0_44_27943">
<rect width="169" height="34" fill="white"/>
</clipPath>
</defs>
</svg>
